<?xml version="1.0"?>
<svg xmlns="http://www.w3.org/2000/svg" xmlns:xlink="http://www.w3.org/1999/xlink" xmlns:svgjs="http://svgjs.com/svgjs" version="1.1" width="512" height="512" x="0" y="0" viewBox="0 0 512 512" style="enable-background:new 0 0 512 512" xml:space="preserve" class=""><g>
<g xmlns="http://www.w3.org/2000/svg">
	<g>
		<g>
			<path d="M469.333,149.343H206.609c-7.259-22.809-19.335-39.064-30.453-53.79c-14.396-19.062-26.823-35.52-26.823-63.54     c0-4-2.24-7.656-5.792-9.489c-3.563-1.854-7.844-1.51-11.083,0.813c-27.615,19.76-48.927,47.04-58.469,74.862     c-6.073,17.708-8.615,34.749-9.542,48.457c-0.948-0.615-1.833-1.354-2.656-2.198c-7.25-7.396-8.563-21.885-8.458-26.843     c0.073-3.687-1.76-7.166-4.844-9.177c-3.104-2.01-6.979-2.344-10.333-0.75c-1.479,0.688-36.281,17.604-38.021,78.227     C0.01,187.946,0,189.967,0,192.008v255.993c0,23.531,19.135,42.665,42.667,42.665h426.667c23.531,0,42.667-19.135,42.667-42.665     V192.008C512,168.478,492.865,149.343,469.333,149.343z M21.448,186.885c0.688-24.146,7.24-39.167,13.552-48.135     c2.083,7,5.583,14.49,11.458,20.531c7.24,7.448,17,11.385,28.208,11.385c5.896,0,10.667-4.771,10.667-10.667     c0-13.292,1.531-33.615,8.844-54.896c6.365-18.563,19.063-36.979,35.833-52.365c4.729,23.354,17.083,39.719,29.125,55.656     c15.25,20.198,29.656,39.281,32.323,74.01l0.198,2.813c0.167,2.198,0.344,4.406,0.344,6.781     c0,47.052-38.281,85.333-85.333,85.333c-47.052,0-85.333-38.281-85.333-85.333C21.333,190.417,21.323,188.833,21.448,186.885z      M42.667,469.333c-11.76,0-21.333-9.573-21.333-21.333v-41.589c32.574,4.723,58.199,30.348,62.922,62.922H42.667z M490.667,448     c0,11.76-9.573,21.333-21.333,21.333h-41.589c4.723-32.574,30.348-58.199,62.922-62.922V448z M490.667,385.078     c-44.32,4.986-79.27,39.935-84.255,84.255H105.589c-4.986-44.32-39.935-79.27-84.255-84.255V255.34     c19.461,26.138,50.319,43.327,85.333,43.327c58.813,0,106.667-47.854,106.667-106.667c0-2.927-0.198-5.656-0.396-8.375     l-0.198-2.719c-0.276-3.599-0.797-6.901-1.286-10.24h194.958c4.986,44.32,39.935,79.27,84.255,84.255V385.078z M490.667,233.589     c-32.574-4.723-58.199-30.348-62.922-62.922h41.589c11.76,0,21.333,9.573,21.333,21.333V233.589z" fill="#f9f9f9" data-original="#000000" style="" class=""/>
			<path d="M250.667,277.333H288c5.896,0,10.667-4.771,10.667-10.667c0-5.896-4.771-10.667-10.667-10.667h-21.333v-10.667     c0-5.896-4.771-10.667-10.667-10.667s-10.667,4.771-10.667,10.667v11.206c-18.046,2.615-32,18.036-32,36.794     c0,20.583,16.75,37.333,37.333,37.333h10.667c8.823,0,16,7.177,16,16s-7.177,16-16,16H224c-5.896,0-10.667,4.771-10.667,10.667     c0,5.896,4.771,10.667,10.667,10.667h21.333v10.667c0,5.896,4.771,10.667,10.667,10.667s10.667-4.771,10.667-10.667v-11.206     c18.046-2.615,32-18.036,32-36.794c0-20.583-16.75-37.333-37.333-37.333h-10.667c-8.823,0-16-7.177-16-16     C234.667,284.51,241.844,277.333,250.667,277.333z" fill="#f9f9f9" data-original="#000000" style="" class=""/>
			<circle cx="128" cy="320" r="21.333" fill="#f9f9f9" data-original="#000000" style="" class=""/>
			<circle cx="384" cy="320" r="21.333" fill="#f9f9f9" data-original="#000000" style="" class=""/>
		</g>
	</g>
</g>
<g xmlns="http://www.w3.org/2000/svg">
</g>
<g xmlns="http://www.w3.org/2000/svg">
</g>
<g xmlns="http://www.w3.org/2000/svg">
</g>
<g xmlns="http://www.w3.org/2000/svg">
</g>
<g xmlns="http://www.w3.org/2000/svg">
</g>
<g xmlns="http://www.w3.org/2000/svg">
</g>
<g xmlns="http://www.w3.org/2000/svg">
</g>
<g xmlns="http://www.w3.org/2000/svg">
</g>
<g xmlns="http://www.w3.org/2000/svg">
</g>
<g xmlns="http://www.w3.org/2000/svg">
</g>
<g xmlns="http://www.w3.org/2000/svg">
</g>
<g xmlns="http://www.w3.org/2000/svg">
</g>
<g xmlns="http://www.w3.org/2000/svg">
</g>
<g xmlns="http://www.w3.org/2000/svg">
</g>
<g xmlns="http://www.w3.org/2000/svg">
</g>
</g></svg>
