<svg id="svg881" xmlns="http://www.w3.org/2000/svg" viewBox="0 0 284.65 313.78"><defs><style>.cls-1,.cls-2,.cls-3{fill:none;}.cls-1,.cls-2,.cls-3,.cls-4{stroke:#f5c43d;}.cls-1{stroke-miterlimit:10;}.cls-2,.cls-3,.cls-4{stroke-miterlimit:11.34;}.cls-2{stroke-width:5px;}.cls-3,.cls-4{stroke-width:1.32px;}.cls-4{fill:#fff;}</style></defs><g id="layer1"><path id="path1460" class="cls-1" d="M207.12,442.87c-4.92-1.59-8.25-5.8-8.15-9.23.06-2,2.55-1.88,3.24-3.72.35-.92.65-1,.18-2.08-1.38-3.25-5.53-1.49-6.18-10.18,0-7.3,12.38-8,18.65-7.87,8.62.13,22.14,2.42,24.68,10.35,1.82,5.7-4.73,13.34-10.13,15.91-2,1-4.1-.35-6.26-.1a4.08,4.08,0,0,0-1.88,1.86c-.35,1.27,0,1.9-.43,3.27-.89,2.72-12,2.35-13.72,1.79Z" transform="translate(-153.19 -245.35)"/><path id="path1462" class="cls-1" d="M207.59,455c-1.21.11-5.65.28-8.1,2a7.79,7.79,0,0,0-3.49,5.68,5.16,5.16,0,0,0,1.32,4.27c6.65,10.2,27.64,8.87,45.43,9.7,18.94.5,26.59-2.95,27.05-3.52a2.92,2.92,0,0,0,1.46-2.73c.32-3.24-2.49-3.49-3-3.34-1.64-.29-9.14,3.09-22.19,3.19-3.27,0-6.76-.81-11.51-1.88-8.89-2.49-23.39-12.09-24.78-13a9.33,9.33,0,0,0-2.17-.35Z" transform="translate(-153.19 -245.35)"/></g><g id="layer5"><path id="path1450-3" class="cls-2" d="M223,310.13c0-9.19-2.62-58.83,17.64-62.13,7.85-1.61,30.15,9.68,46.27,43.82,1.6,2.5,15.14.42,25.71,1.7,11,1.3,18.18,7.27,21.37,3.59,47.7-55,71.78-65.2,64.67,36.6,2.21,7,36.45,32.42,36.65,90.53C432.93,502.86,369.59,557,292.17,556.55c-19.1,1.41-127.68-14.68-136.33-127.28-1.81-34.39,13.82-64.49,16.19-68.5C195,322,223,312.51,223,310.13Z" transform="translate(-153.19 -245.35)"/></g><g id="layer11"><path id="rect1481-3-8" class="cls-1" d="M167.28,328.43l-4.39,14.05,7.24,2.26-2.46,7.87,8,2.49-2.49,8,7.73,2.41-2.51,8,54.62,17,2.5-8,7.15,2.24,2.48-8,8,2.49,2.46-7.88,16.89,5.27L270,384.58l7.29,2.28-2.56,8.21,7.77,2.42L280,405.36l54.61,17,2.45-7.87,7.11,2.22,2.56-8.21,8.64,2.7,2.47-7.92,7.2,2.25,4.39-14.05Z" transform="translate(-153.19 -245.35)"/><path id="rect1536-27-7" class="cls-3" d="M196.29,346l-2,6.32,6.22,1.94,2-6.32Zm5.11,9.88-2,6.32,6.22,1.94,2-6.32Zm-15-4.66-2,6.32,6.23,1.94,2-6.32Zm5.13,9.9-2,6.32,6.22,1.94,2-6.32Zm15,4.7-2,6.31,6.22,2,2-6.32Z" transform="translate(-153.19 -245.35)"/><path id="rect1536-2-7-0" class="cls-4" d="M291.83,376.16l-2,6.32,6.23,1.94,2-6.32Zm15,4.83-2,6.32,6.22,1.94,2-6.32Zm5.11,9.87-2,6.32,6.22,1.94,2-6.31Zm-15-4.65-2,6.32,6.23,1.94,2-6.32Zm5.14,9.9-2,6.32,6.22,1.94,2-6.32Zm15,4.69-2,6.32,6.22,1.94,2-6.32Z" transform="translate(-153.19 -245.35)"/></g></svg>