<svg id="Layer_1" data-name="Layer 1" xmlns="http://www.w3.org/2000/svg" viewBox="0 0 804.6 804.6"><defs><style>.cls-1{fill:#ff4500;}.cls-2{fill:#fff;}</style></defs><circle class="cls-1" cx="402.3" cy="402.3" r="402.3"/><path class="cls-2" d="M674.9,405.6a58.77,58.77,0,0,0-99.4-40.3,286,286,0,0,0-154.9-49.5l26.1-125.5,86.1,18.1a40.3,40.3,0,1,0,5.3-24.6l-98.6-19.7a12.46,12.46,0,0,0-14.9,9.5v.2L394.9,313.4A288.17,288.17,0,0,0,238,362.9a58.72,58.72,0,1,0-80.4,85.6,56.89,56.89,0,0,0,15.8,10.6,130.69,130.69,0,0,0,0,17.7c0,90.1,105,163.4,234.5,163.4S642.4,567,642.4,476.8a130.69,130.69,0,0,0,0-17.7A58.73,58.73,0,0,0,674.9,405.6ZM272.6,445.9a40.3,40.3,0,1,1,40.3,40.3A40.37,40.37,0,0,1,272.6,445.9ZM506.3,556.5a154.46,154.46,0,0,1-99.4,31,154.46,154.46,0,0,1-99.4-31,10.87,10.87,0,0,1,15.3-15.3,131.42,131.42,0,0,0,83.7,25.3A132.41,132.41,0,0,0,490.6,542a11.24,11.24,0,0,1,15.7,16.1h0v-1.6Zm-7.2-68.9a28.5,28.5,0,1,1,1.7,1.5h-2Z" transform="translate(-4.3 -3.3)"/></svg>